
<global>
amp_veltrack=0
ampeg_release=0.25
xfin_hicc1=24
xfout_hicc1=127
xfout_locc1=127
</global>

<group>
group_label=PP
lpc_hicc1=42
lpc_locc1=0

<region>
hikey=a3
hivel=127
lokey=g#3
lovel=1
lpc=jA+7QmyHT8O23RVDBVJvwll8N0IjC9TBOxlkQKr5j8EDZKZBYXYyQsRom8Ki3hVCykopwa2qr0FVjPbB+nakQf5EiMGvS7lAzwa0QZjLA8Ln31xBhNPrQHmsN8HXkatA
lpc_rms=-19.29
offset=9920
pitch_keycenter=a3
sample=Alto_nonvib_PP_A3.opus
tune=-4
</region>

<region>
hikey=a4
hivel=127
lokey=g#4
lovel=1
lpc=sJsRQ0y6rcOUmKNDjsNIw6xG7kJ+egfCxsCpwQyJn8FlUCJC/PotQodZ3cL6cNVCxtmRwoZLjkLWUZTCMwRkQgtsIcLAIABAOsFEQvBWfcLgYAhCOmQywXnV9sAHZmJB
lpc_rms=-18.14
offset=5824
pitch_keycenter=a4
sample=Alto_nonvib_PP_A4.opus
tune=-27
</region>

<region>
hikey=B5
hivel=127
lokey=a5
lovel=1
lpc=WklCQvXXjsJYA1JCwr+zwVYYPUHY7MNArTm9v8PoccAUNpu/a3FxQXSjob8EGL3AL6VaQQTre8FdIJlBMoM4we0zjEHYYnrArTFNwRfBh0EjuMW9isWdP0jJ40DcIAHB
lpc_rms=-35.04
offset=906
pitch_keycenter=A#5
sample=Alto_nonvib_PP_A5.opus
tune=+40
</region>

<region>
hikey=b3
hivel=127
lokey=a#3
lovel=1
lpc=XSF0Qu6HD8NT4PhCaXGTwgpfQkLMWbzB8NCBQbbIncEkCkdB0FmbQUkVJcK9+t1Bjjs8wW55vUDTvmrBa+2xQX3xrsEDGcRBVlkBwfCeMcCFWPTAnPxCQZj6JsGAiZNA
lpc_rms=-22.38
offset=3429
pitch_keycenter=b3
sample=Alto_nonvib_PP_B3.opus
tune=+4
</region>

<region>
hikey=c5
hivel=127
lokey=a#4
lovel=1
lpc=0W96QsagLsNIuztDkXbMwi5fIEJoFYfBK9OMvon8B0GV4sDA5mWhQUUZOsIOfz5CveytwQKttECMQxvBTBzmQPfYkkBYXi/BsLWfQf/c5sG4+HhB7s2pQV7LFsLuJIlB
lpc_rms=-22.17
offset=7363
pitch_keycenter=B4
sample=Alto_nonvib_PP_B4.opus
tune=-32
</region>

<region>
hivel=127
key=c#3
lovel=1
lpc=UbiAQlEUFsOoFfhC5GRfwjSA0kFFfATBWvgRP4wwlsFUOAJCxi9gwY5M/cCro31BIKSLwTsRZEFOzN7AW6IIQKQDicBJ5fRAVnfQwIuPPD9My5tA6a04wPmTmz8VCK+/
lpc_rms=-14.43
offset=9035
sample=Alto_nonvib_PP_C#3.opus
tune=-20
</region>

<region>
hikey=c#4
hivel=127
lokey=c4
lovel=1
lpc=Kr+RQshuPcM58jZDJXXEwsPwakLGlEjCEVIUQhnmDcLSdB5CCq/RP62ADcKfFytBhNDCQN3uIEGlk9zBmae8QZ3xKsGdtl1AN4PAQDr5rUCuhQDCmmUVQvOdscFC4MFA
lpc_rms=-19.18
offset=772
pitch_keycenter=c#4
sample=Alto_nonvib_PP_C#4.opus
tune=-11
</region>

<region>
hikey=d5
hivel=127
lokey=c#5
lovel=1
lpc=64tnQvD/CcOg4gZDCi+gwmk9YUIkgzfCik3ZQSkbmMFFzs1ACHCbQTPz08F+lKpBiyK7wV9M9kFUudzBDxgDQravLMKxJABCG2uGwWOltEHI3unBW1q6Qb+okcEsRjxB
lpc_rms=-24.71
offset=2313
pitch_keycenter=d5
sample=Alto_nonvib_PP_C#5.opus
tune=+39
</region>

<region>
hikey=d#3
hivel=127
lokey=d3
lovel=1
lpc=KDomQtjJzMIxkLVCp3oRwpqjd0Cgx9ZAw3U1wLsJ1MBZ9iNBrBxJv/6gU8G2KYVBiVZOwRSfIkHsrAbBex+OQB2A1j6EZGrAzlCVQEnzEcC1zBHAijL6QLttEsE5U3xA
lpc_rms=-19.44
offset=5364
pitch_keycenter=d#3
sample=Alto_nonvib_PP_D#3.opus
tune=+12
</region>

<region>
hikey=d#4
hivel=127
lokey=d4
lovel=1
lpc=IigiQsAY0sKezthCArmRwjWvU0JLzg/C6FpIQaGAScDQbfBAfnOzQIBmwMFjeKtBFllZwW7SikEzfcPBacR8QWN8Mr9/BJO/p2OZP44pOb/KSvTALcFVQaMvRMEcrbJA
lpc_rms=-22.53
offset=10359
pitch_keycenter=d#4
sample=Alto_nonvib_PP_D#4.opus
tune=-23
</region>

<region>
hikey=e5
hivel=127
lokey=d#5
lovel=1
lpc=JfccQjWVyML6JNFCLFpowmzFAkKxRvXBj7XZQWZj8sHwZwlCHeRywezTWMHV4uVBycPPwY5JtkFd56XBqrBKQRlzeMCE7FtArZlrwGmusED+L5XB7IoDQvxA1MGo3CJB
lpc_rms=-26.32
offset=423
pitch_keycenter=E5
sample=Alto_nonvib_PP_D#5.opus
tune=+39
</region>

<region>
hikey=f3
hivel=127
lokey=e3
lovel=1
lpc=S5GkQb0oN8LfBRJC3EN7wdw/NkHxzBfBca6hPxOjEL/6ySZAKNe4QFKJS8ENQOhA4+kEv+jvH0D2kqnAPtmCQH4gZ8AdZzNAQb91P6CBj8BlAoxAppncv0Q1uLwiut0+
lpc_rms=-27.12
offset=5918
pitch_keycenter=f3
sample=Alto_nonvib_PP_F3.opus
tune=+13
</region>

<region>
hikey=f4
hivel=127
lokey=e4
lovel=1
lpc=z/wBQ+77mcNdJnhD+XH9wlR82EI4JE3CoHEqwRISkcEk6VxCTgFdQVMpiMKIgrhBA55DwTrUI0JlbP/BjDSdQYxx4cERSApCjRRswVrbt8FJjwRCOAZ/wRC/br8J0Y9A
lpc_rms=-20.16
offset=4256
pitch_keycenter=f4
sample=Alto_nonvib_PP_F4.opus
tune=-12
</region>

<region>
hikey=f#5
hivel=127
lokey=f5
lovel=1
lpc=htiDQvsoC8OJfutCGhBQwnuEDULS1BLCPD0tQrqhNsLhlgpCbUWVwaEzZEG/Ppa+Z66DwWpR/UE7F+XBYni9QXJDwcEJnJZBfJjvPqw5p7/A5V+/vOv/QBPmpMFIaZlB
lpc_rms=-24.23
offset=69
pitch_keycenter=f5
sample=Alto_nonvib_PP_F5.opus
tune=-35
</region>

<region>
hikey=g3
hivel=127
lokey=f#3
lovel=1
lpc=bkRkQvDuDcMCDgBDGNKIwsr9RUKh4AjCzeRGQe+Uj8HVBrNBf3ABQVIUCcIFwQJCLHyjwWgDmEHtkZjBcdE2QRBoK8HU9hdBFQ23QODCocH28oRBKyrmwHryG0AW81u+
lpc_rms=-19.02
offset=5656
pitch_keycenter=g3
sample=Alto_nonvib_PP_G3.opus
tune=+9
</region>

<region>
hikey=g4
hivel=127
lokey=f#4
lovel=1
lpc=4qPaQtWAi8PuGYVDMPojw3vr8kICt0fCGAgwwXx2kMFlqEdCQm0rwe+QEMLEdgVCI//cwWh8PEIULIrCsv2NQi5wIcLf2wlAz48IQpzvhMINtHlC0NJxwUbcusEcH39B
lpc_rms=-17.46
offset=2783
pitch_keycenter=g4
sample=Alto_nonvib_PP_G4.opus
tune=-27
</region>

<region>
hikey=g#5
hivel=127
lokey=g5
lovel=1
lpc=oMKiQhD7GsNAFQtDr+qewmdRPUI1UcHBKKfmQRZzEsLS6xlCnPJxwSwmBUHrMsO/MPDrwNQSpEHuRVvBasxOQdm6wcDnn4k/aZ2AQHZjV0H5qzfBwGn3QKeGU8B7V/hA
lpc_rms=-25.72
pitch_keycenter=g5
sample=Alto_nonvib_PP_G5.opus
tune=-44
</region>
</group>

<group>
group_label=MF
lpc_hicc1=84
lpc_locc1=43

<region>
hikey=a3
hivel=127
lokey=g#3
lovel=1
lpc=plZDQlUh3sJ9Y6tC3y4ewodKG0Ju7gHCd1NwQdp6xsHXud9BvAlDQd+QI8K4htdB2VMXweRKLUGKzcbA8VHNwKUdC8B0kv9ATR4FQZLbjMHZDk5B1gMwwY1IEEH5sxjA
lpc_rms=-15.96
offset=7374
pitch_keycenter=a3
sample=Alto_nonvib_MF_A3.opus
tune=-6
</region>

<region>
hikey=a4
hivel=127
lokey=g#4
lovel=1
lpc=6EczQirx68JhvglDF9PSwlY8b0KTOcbBXH2UQTgSNcKNu3hCBpoSwtvBS8AJpxtCmvBswnP2bkLGtynC5dnaQa1xxMFZRKZBe798wWwwLUHDYujAdkWqQKkz3sDN77FA
lpc_rms=-12.15
offset=2774
pitch_keycenter=a4
sample=Alto_nonvib_MF_A4.opus
tune=-22
</region>

<region>
hikey=B5
hivel=127
lokey=a5
lovel=1
lpc=mCsMQpilMML3ffJBedx2wGLzycCzyMlBmlVuwUfQ2ECt9F7ASBUZQQ0O5kCNE27AaEwuQIrfKUBFWUW/9osOQZxszUBnE2bAZZJ1wF7xMEGgpwA+paMUQSWWecCOFDBA
lpc_rms=-19.26
offset=97
pitch_keycenter=A#5
sample=Alto_nonvib_MF_A5.opus
tune=+27
</region>

<region>
hikey=b3
hivel=127
lokey=a#3
lovel=1
lpc=GqDlQV9fgsK/dk1CctGcwcucPUGsI2jB1M5lQb+jV8FXIXJANpBiQVNmesHp5mC+i+/kQA2SXT84aK3AkTMMP+d9yL+FljlAhGMAQDDVeD76RTzAt+QEP3notz9mkoC/
lpc_rms=-19.39
offset=1716
pitch_keycenter=b3
sample=Alto_nonvib_MF_B3.opus
tune=+8
</region>

<region>
hikey=b4
hivel=127
lokey=a#4
lovel=1
lpc=7I65QbfnjMLZJMBCvw2gwgWxMUIa82PBOcUlP+GtYcD0+URBGbYcwXlf0Lv4e49A/ZswwOsoV8DZ4uJATa93wGw+8r86iQdB7VpywWUDmkHyQ5PBfNFnQeeMCsG3+TFA
lpc_rms=-16.88
offset=8770
pitch_keycenter=b4
sample=Alto_nonvib_MF_B4.opus
tune=-29
</region>

<region>
hivel=127
key=c#3
lovel=1
lpc=q90WQnvi1MLGhvdCjOahwsCgBEJ/EYHAwdHKwAZI6cAN5NFB87qhwVjDwT0ZNjRBnmKHwbwAqUHsRnrBkP5CPUR0yECWVgm/IwsIP3Fkj74v+LvArezxQDO4GsAAzyK/
lpc_rms=-13.48
offset=3868
sample=Alto_nonvib_MF_C#3.opus
tune=-13
</region>

<region>
hikey=c#4
hivel=127
lokey=c4
lovel=1
lpc=akYpQsZt0cKsKL9C9AI3wlN94EHoM/XB8WjVQY8/1MGB3bVB360IwLVCKcFMKURAqIP1QM97aMBxodPAuLQvQXsxn8Et74hBzrs0QK422MAkgW4/ZE0UwWTcgEF4VeLA
lpc_rms=-16.72
offset=1629
pitch_keycenter=c#4
sample=Alto_nonvib_MF_C#4.opus
tune=-20
</region>

<region>
hikey=c#5
hivel=127
lokey=c5
lovel=1
lpc=zRduQS5sGcKFE0NCK7MpwkWk8kFTyKrBrWiDQerzSsEFwPdAuTsBQCVsU8EQWIZBMhUnwfHWJUD4mBhA/QNdwFiME0BTXgs/6xG7vzz9eL+buRtAZIMKv8YG3b+oTABA
lpc_rms=-19.78
offset=1709
pitch_keycenter=c#5
sample=Alto_nonvib_MF_C#5.opus
tune=-40
</region>

<region>
hikey=d#3
hivel=127
lokey=d3
lovel=1
lpc=omEuQoAU68JJ0PZCSFmPws6NBUK/Jz7Bio+sv6MOpcCbFJtBfD9MwZJR08AXj2RByBJnwY3CjkH7MKbBAreRQeDQKsEJ8IrAMKqCQZBUPcFLrkVAFM9AQBkSwMBezjpA
lpc_rms=-14.68
offset=6373
pitch_keycenter=d#3
sample=Alto_nonvib_MF_D#3.opus
tune=+2
</region>

<region>
hikey=d#4
hivel=127
lokey=d4
lovel=1
lpc=GT3dQeGej8LkQoVCOUvMwVMKRUGo453BaGdcQW5k88BpByBBpbndwKZZjj9LdIlAWPA4wQ9/jEETBovBV04GQaT/yT+LEFjAlCqQPyxnJL/5fBXA7hHnQCxd18C5nBxA
lpc_rms=-19.40
offset=586
pitch_keycenter=d#4
sample=Alto_nonvib_MF_D#4.opus
tune=-25
</region>

<region>
hikey=d#5
hivel=127
lokey=d5
lovel=1
lpc=72RlQXaeCsJVXCxCCkAOwrBW0UFbtrPBjf6bQTlYaMECbBBB0uI7wPxFj79B+PY+waLGQPippcARYhnANG/8QM1NBcHEsgRB3s0NwWmYD0FN+RfBZdkZQXEv3sDVc4FA
lpc_rms=-21.78
offset=9660
pitch_keycenter=d#5
sample=Alto_nonvib_MF_D#5.opus
tune=-37
</region>

<region>
hikey=f3
hivel=127
lokey=e3
lovel=1
lpc=hjH8QfDcnsLmlZtCncpIwtPFIkIUsvPB3OtDQQza+8DNyk1BWtZtwLBjG8HF0QhBWgZCwLAlzEByMDDBg14VQe2x8cBvzcZACeRuwLIXXT9UL4M/ied1QEia5MADc0ZA
lpc_rms=-22.63
offset=5340
pitch_keycenter=f3
sample=Alto_nonvib_MF_F3.opus
tune=+14
</region>

<region>
hikey=f4
hivel=127
lokey=e4
lovel=1
lpc=SIo3QvOT8cJzzORCgCR2wlTcUEKBDBTC9wYFwJOqjcBSBeJB77HcP8Z5EsI7QRBCcEcvwjXKVEJn4QXCQsYeQfpNK8BTYofAYjvHQWVlJMIfUxZC35DkwduaiUEevY3A
lpc_rms=-15.36
offset=5876
pitch_keycenter=f4
sample=Alto_nonvib_MF_F4.opus
tune=-13
</region>

<region>
end=270712
hikey=f#5
hivel=127
lokey=e5
lovel=1
lpc=j5dbQX4R6MGjngFCvprMwRkKqEEgWIHBxEMRQWcoLMA/wFdAtTSwwNB5bEBxJQs/9+U8wH9Ut0ANgdTAR5nKQDBIYsAdtDBAYxYHwHvEhkDGGYTAOPpWQDAwAMAkqdI/
lpc_rms=-19.27
offset=141
pitch_keycenter=F5
sample=Alto_nonvib_MF_F5.opus
tune=-41
</region>

<region>
hikey=g3
hivel=127
lokey=f#3
lovel=1
lpc=2fU8QtT95cJHzMhCdeRpwmyBZ0IC4yjCjH/AQCGu9sA5vqRB1BMPQQsBI8KmTxJCsRKwwVvrn0H4Dl/BE0M2P2vKAcCyS79A7jZDQHP7ZsGGB5VB2WtnwcGfA0FKljrA
lpc_rms=-15.75
offset=5895
pitch_keycenter=g3
sample=Alto_nonvib_MF_G3.opus
tune=+1
</region>

<region>
hikey=g4
hivel=127
lokey=f#4
lovel=1
lpc=swYlQoEb3sKo4u5C7TaSwqlQGULFzpHBRmkYQQNUDcIssnRCwaLowZoaisFl5rBBm+GCwX8mmUHSJ5XB6W6OQT9ZmcFJGjpBZFoxQX0M18GMk8RBYppUwcKaqj89fQ1A
lpc_rms=-12.96
offset=5457
pitch_keycenter=g4
sample=Alto_nonvib_MF_G4.opus
tune=-17
</region>

<region>
hikey=g#5
hivel=127
lokey=g5
lovel=1
lpc=CCHDQXCnFMIatrpBjj99QD1XJ8Huzv9A0R+lP8ZYvL+wQR9AxRGkQOYtQsFGg1hBS/O1QHIlUMHaKxFB4tXMv6X3CUBoMgdAyu7GQCajScGCPDNBny/EQMAVc8EfNVxB
lpc_rms=-20.78
offset=12000
pitch_keycenter=g#5
sample=Alto_nonvib_MF_G5.opus
tune=+43
</region>
</group>

<group>
group_label=FF
lpc_hicc1=127
lpc_locc1=85

<region>
hikey=a3
hivel=127
lokey=g#3
lovel=1
lpc=uvl6QYsyHcKAkixCuNoEwogwtEFMuDPBeiY7QCokh8CZIwJB11vdwBUIwkDS9uTAF/SrQI/QAr/oucS/f53fPt13oT8VE+HAytI3QTZf8cAfGDFAnG0QwMde4z9o4Lm+
lpc_rms=-12.67
offset=7410
pitch_keycenter=a3
sample=Alto_nonvib_FF_A3.opus
tune=-6
</region>

<region>
hikey=a4
hivel=127
lokey=g#4
lovel=1
lpc=uyPJQePZfMJw/IhC+YQ4wlUQ2UEfr7TB6/KeQT5Df8HfQiNB1rWRwJzZnUDAaOk/Gg0dwVWKQ0H9ZHXB7hayQa4IqcGFhBBBL4EhwMlfW0AdDgbBHYs2QTC9DsGxdH5A
lpc_rms=-8.33
offset=9828
pitch_keycenter=a4
sample=Alto_nonvib_FF_A4.opus
tune=-26
</region>

<region>
hikey=a5
hivel=127
lokey=g#5
lovel=1
lpc=mgDEQQBHgcGkXT5ByAsEQd4LiEDxXYbAXuZYQVod8UBQNOXAIdpHQVnFxUBGLDlAD2pxwIzhpEHu2qXAELTNPwulSUEgsnhAHdqsv2e/skCGnHNBKKH7wA8W0kBpZ0hB
lpc_rms=-13.33
pitch_keycenter=A5
sample=Alto_nonvib_FF_A5.opus
tune=-43
</region>

<region>
hikey=b3
hivel=127
lokey=a#3
lovel=1
lpc=NeKAQbUwMcLmp1lCovMkwrHBxkGOc5HB1DqPQW1dn8G7BZFB84UQwVn40D8zHVPA1BzHQIaSZcAsq06/bOjpP1Ylrz9BAAXBhDo8QUHoqMCXCCDAEDM7QHaQSD+8oYy/
lpc_rms=-14.92
offset=1504
pitch_keycenter=b3
sample=Alto_nonvib_FF_B3.opus
tune=+1
</region>

<region>
hikey=b4
hivel=127
lokey=a#4
lovel=1
lpc=wrHwQFFPkMEvi69BFpOowc8gjEG7akvBGDv9QDWXPsB2xeq/y8u6QGomx8D1Z6tAFOFXwMLR/z41f5y+kCmaPmmipz/JBgjAvLi2P9XFdzom20e/JC2hPz9aWr/YoPg9
lpc_rms=-12.11
offset=11368
pitch_keycenter=b4
sample=Alto_nonvib_FF_B4.opus
tune=-26
</region>

<region>
hivel=127
key=c#3
lovel=1
lpc=D0UoQU/JuME7yq9BRuSFwQBmYEHOkC7B127RQNQOn8D1q59AOx6Tv5dFP8B8+F9AqdsbwClzIEBwBkHAla0qvMf5EEBPtf89OIVyv3A9tr4osIy99Et3P6uDZT54fDm/
lpc_rms=-10.57
offset=11033
sample=Alto_nonvib_FF_C#3.opus
tune=-17
</region>

<region>
hikey=c#4
hivel=127
lokey=c4
lovel=1
lpc=FWtJQeHIAcI32h5COKgIwm8fx0E33ofBzGc6Qf1gOcFS7U9BoR8WwU8ZSkBdG5o/k2qIwJ/vukCS1H3ADP8WQCxIo8AQWplAkyHGP6BI5MDIEfpAKcS8wNuqikBz8cG/
lpc_rms=-14.56
offset=5237
pitch_keycenter=c#4
sample=Alto_nonvib_FF_C#4.opus
tune=-21
</region>

<region>
hikey=c#5
hivel=127
lokey=c5
lovel=1
lpc=5P2aQI88GcEhzCtBgLoWwSHR6kBtUaTA1u0JQGefbT/kcy3ATnBbQEqQcsDUCWdAUo0QwGiYTz9Y+Ii+zuJ4P6dMFL/Akk0+K/MWPmUcGr/H1g0/B+D+PjWLwL/PVqc/
lpc_rms=-16.26
offset=288
pitch_keycenter=c#5
sample=Alto_nonvib_FF_C#5.opus
tune=-38
</region>

<region>
hikey=d#3
hivel=127
lokey=d3
lovel=1
lpc=2TtoQVerDcKdORdCbOUBwpIn80GUErfBw7UfQfOSwL+3nk/AnRo3QS5zgcHo2EdBj6v7wNa9mkA+gRDAuPOAPkRwA8AsU8ZAzZCDwF6aj71nrSm/w+YbQNeF+7/xoCw/
lpc_rms=-10.48
offset=5386
pitch_keycenter=d#3
sample=Alto_nonvib_FF_D#3.opus
tune=-6
</region>

<region>
hikey=d#4
hivel=127
lokey=d4
lovel=1
lpc=a8ltQfg6G8I8aENCD7c3wgKPGEK7Gs/BaNEzQSxIPMDIn1fANwEtQedTK8EFlHlAiEZIQFwP4MBLd+tAENBawNT5rT7cRxm/miOJva9lPkDzQtPAzgsHQUscBMHUYINA
lpc_rms=-16.16
offset=912
pitch_keycenter=d#4
sample=Alto_nonvib_FF_D#4.opus
tune=-21
</region>

<region>
hikey=d#5
hivel=127
lokey=d5
lovel=1
lpc=O6iCQB4A9sCxWgRBLcjEwKmiVEBSmX6/nRj0vh+/vT/o+TbAmuWEQKc8YcCJcRFAJVMKv0PfKb5KX48/JzGbvw1nVD9v4zS/moQNP+3QHz4EDoC/UZCYP/E2Nr//JlM/
lpc_rms=-14.65
offset=8912
pitch_keycenter=d#5
sample=Alto_nonvib_FF_D#5.opus
tune=-42
</region>

<region>
hikey=f3
hivel=127
lokey=e3
lovel=1
lpc=WamAQYhdKMIif0NC80Ikwo6I/EFeFIXBwagCP/MJlEBOrMq/cWfYP1ufz7//1hzAqgOOQBYjNcCshkk/pnwcP9OpZ8AnSphA/slHPwj5m8CyWoNABxFAwLmTAUAx7SC/
lpc_rms=-14.83
offset=6945
pitch_keycenter=f3
sample=Alto_nonvib_FF_F3.opus
tune=+1
</region>

<region>
hikey=f4
hivel=127
lokey=e4
lovel=1
lpc=xCjSQTd7msKbcdFCBenHwvwDqEJ1GIXCVChHQlY+F8JdLO1BsTqVwY8nTUE2BXjBzr5mQTbDxMAkA/w/Kjr4wJ+Ga0F4VaHBq0rlQfsh/cE5puBBZjDPwSo/ikGRF5DA
lpc_rms=-11.61
offset=7878
pitch_keycenter=f4
sample=Alto_nonvib_FF_F4.opus
tune=-8
</region>

<region>
hikey=f5
hivel=127
lokey=e5
lovel=1
lpc=022VQNDDrcAFD79A0m6HwLClN0C+AgHAUb6pP/Uaqr7b5Gq+NDFlP5HI277TBWI/VQ5cvgTeoj9KEAC/+m8tPweYM7+L6UA/QcGEv4eQ0T8Fufy+GDinP1bRO76AMj0/
lpc_rms=-14.74
pitch_keycenter=f5
sample=Alto_nonvib_FF_F5.opus
tune=-45
</region>

<region>
hikey=g3
hivel=127
lokey=f#3
lovel=1
lpc=JjXPQbsghcLPHIxChD8+wupg80GtACTBpbBIwY/3MEFfyjtAiCSuP56jxcAz+jLALPS9QB7dD0AfzLXAI9MGP3hul0AUS1nBsNXBQUnqrcE9YDRBgZ+gwK7USECSLMO/
lpc_rms=-10.93
offset=4670
pitch_keycenter=g3
sample=Alto_nonvib_FF_G3.opus
tune=-4
</region>

<region>
hikey=g4
hivel=127
lokey=f#4
lovel=1
lpc=kviuQbh1bcJMSZdCpQmHwrtAPkI0xsrBJXglQZFXCcEmCV5BTytowcO1aUE4cozBN5GJQdnRMMHXdta+tWojQc/EnsEoUvZB/6f5wWJTqkFLs9fAOSaTwGvVv0AtY/G/
lpc_rms=-9.48
offset=1434
pitch_keycenter=g4
sample=Alto_nonvib_FF_G4.opus
tune=-19
</region>

<region>
hikey=g5
hivel=127
lokey=f#5
lovel=1
lpc=UBzQQPDbGMEwuNtAxRakv3YNHL+VfLc/yrBFP9x6ir+nRVU/oYQgPzL8v77Zv2o/8dsqPyuf8D1DS0i/kzf9P+cx478tWiZAYQ5av+Ut+j7Ezdc+LbghPxQNxr/D7SJA
lpc_rms=-18.70
offset=13647
pitch_keycenter=g5
sample=Alto_nonvib_FF_G5.opus
tune=-41
</region>
</group>